<?xml version="1.0" encoding="utf-8"?>
<!-- Generator: Adobe Illustrator 27.9.0, SVG Export Plug-In . SVG Version: 6.00 Build 0)  -->
<svg version="1.1" xmlns="http://www.w3.org/2000/svg" xmlns:xlink="http://www.w3.org/1999/xlink" x="0px" y="0px"
	 viewBox="0 0 210.64 45.96" style="enable-background:new 0 0 210.64 45.96;" xml:space="preserve">
<style type="text/css">
	.st0{fill:#FDB913;}
</style>
<g id="ZP">
	<g>
		<path d="M160.88,43.71h-15.37c-0.32,0-0.57-0.26-0.57-0.57V14.87c0-0.32,0.26-0.57,0.57-0.57h14.71c0.32,0,0.57,0.26,0.57,0.57v3
			c0,0.32-0.26,0.57-0.57,0.57h-9.83c-0.32,0-0.57,0.26-0.57,0.57v7.18c0,0.32,0.26,0.57,0.57,0.57h8.97c0.32,0,0.57,0.26,0.57,0.57
			v2.98c0,0.32-0.26,0.57-0.57,0.57h-8.97c-0.32,0-0.57,0.26-0.57,0.57v7.55c0,0.32,0.26,0.57,0.57,0.57h10.48
			c0.32,0,0.57,0.26,0.57,0.57v2.98C161.45,43.45,161.19,43.71,160.88,43.71z"/>
		<path d="M166.68,43.13V14.87c0-0.32,0.26-0.57,0.57-0.57h8.76c2.84,0,5.1,0.62,6.76,1.87s2.49,2.86,2.49,4.86
			c0,1.67-0.47,3.12-1.42,4.35s-2.25,2.11-3.92,2.62v0.08c2.02,0.23,3.64,0.98,4.85,2.25c1.26,1.32,1.87,3.05,1.81,5.2
			c-0.05,2.06-0.93,4.04-2.46,5.41c-2.06,1.84-4.73,2.77-8.02,2.77h-8.86C166.94,43.71,166.68,43.45,166.68,43.13z M171.54,18.79
			v7.22c0,0.32,0.26,0.57,0.57,0.57h2.59c1.7,0,3.02-0.4,3.99-1.2s1.45-1.93,1.45-3.39c0-2.52-1.68-3.77-5.04-3.77h-2.98
			C171.8,18.21,171.54,18.47,171.54,18.79z M171.54,31.07v8.17c0,0.32,0.26,0.57,0.57,0.57h3.59c1.82,0,3.22-0.42,4.21-1.26
			s1.49-2,1.49-3.48c0-3.05-2.11-4.57-6.34-4.57h-2.96C171.8,30.5,171.54,30.75,171.54,31.07z"/>
		<path d="M190.98,42.7c-0.18-0.1-0.29-0.29-0.29-0.5l0-4.69c0.45,0.41,0.99,0.78,1.61,1.11s1.28,0.61,1.98,0.83s1.39,0.4,2.09,0.52
			s1.34,0.18,1.93,0.18c2.05,0,3.58-0.34,4.58-1.03s1.51-1.67,1.51-2.97c0-0.7-0.17-1.3-0.5-1.81s-0.8-0.98-1.4-1.41
			s-1.31-0.83-2.12-1.22c-0.81-0.39-1.67-0.79-2.6-1.21c-0.01-0.01-0.02-0.01-0.04-0.02c-0.99-0.53-1.91-1.07-2.77-1.61
			c-0.86-0.55-1.61-1.15-2.25-1.81s-1.13-1.41-1.5-2.25s-0.54-1.81-0.54-2.93c0-1.38,0.31-2.58,0.93-3.6s1.44-1.86,2.46-2.52
			s2.18-1.16,3.48-1.48c1.3-0.32,2.62-0.48,3.98-0.48c2.84,0,4.97,0.3,6.39,0.89c0.21,0.09,0.34,0.3,0.34,0.53v3.42
			c0,0.43-0.46,0.71-0.83,0.5c-1.53-0.85-3.4-1.28-5.61-1.28c-0.72,0-1.45,0.07-2.16,0.21s-1.36,0.36-1.93,0.68
			s-1.03,0.72-1.38,1.21s-0.53,1.09-0.53,1.78c0,0.66,0.14,1.22,0.41,1.7s0.67,0.92,1.2,1.31s1.17,0.78,1.93,1.16
			c0.75,0.37,1.63,0.78,2.61,1.21c0.01,0.01,0.03,0.01,0.04,0.02c1.02,0.53,1.98,1.09,2.88,1.67c0.91,0.59,1.71,1.24,2.4,1.95
			s1.24,1.5,1.64,2.37s0.61,1.86,0.61,2.96c0,1.49-0.3,2.75-0.9,3.77s-1.41,1.86-2.43,2.5s-2.19,1.11-3.52,1.39s-2.73,0.43-4.2,0.43
			c-0.49,0-1.1-0.04-1.82-0.11s-1.45-0.18-2.2-0.33s-1.46-0.32-2.13-0.52C191.79,43.07,191.35,42.9,190.98,42.7z"/>
	</g>
	<g>
		<path class="st0" d="M131.12,30.72l-1.88-3.15c-0.09-0.16-0.32-0.16-0.41,0l-5.04,8.57c-0.09,0.16-0.32,0.16-0.41,0l-5-8.35
			c-0.09-0.15-0.31-0.16-0.41-0.01l-1.67,2.63c-0.09,0.15-0.31,0.15-0.4,0l-1.68-2.63c-0.1-0.15-0.32-0.15-0.41,0.01l-5.01,8.31
			c-0.09,0.16-0.32,0.15-0.41,0l-5.04-8.53c-0.09-0.16-0.32-0.16-0.41,0l-1.81,3.09c-0.04,0.07-0.04,0.17,0,0.24l7.24,12.55
			c0.09,0.16,0.32,0.16,0.41,0l7.1-12.09c0.09-0.16,0.32-0.16,0.41,0l7.12,12.14c0.09,0.16,0.32,0.16,0.41,0l7.31-12.54
			C131.17,30.89,131.17,30.8,131.12,30.72z"/>
		<path d="M132.53,28.3l7.96-13.57c0.09-0.16-0.02-0.36-0.21-0.36l-10.04-0.04c-0.08,0-0.16,0.04-0.2,0.11l-6.25,10.07
			c-0.09,0.15-0.31,0.15-0.41,0l-1.75-2.79c-0.05-0.08-0.05-0.17,0-0.25l3.9-6.78c0.09-0.16-0.03-0.36-0.21-0.36l-6.02,0.11
			c-0.08,0-0.16,0.05-0.2,0.12l-2.89,4.93c-0.04,0.07-0.04,0.15-0.01,0.23l0.84,1.73c0.03,0.06,0.03,0.14,0,0.2l-0.86,1.96
			c-0.03,0.07-0.03,0.15,0.01,0.22l1.6,2.73c0.18,0.31,0.62,0.31,0.81,0.01l0.31-0.5c0.19-0.3,0.63-0.3,0.81,0.01l3.64,6.22
			c0.09,0.16,0.32,0.16,0.41,0l7.86-13.61c0.04-0.08,0.13-0.12,0.21-0.12l1.68,0.04c0.18,0,0.29,0.2,0.2,0.36l-3.4,6.16
			c-0.04,0.07-0.04,0.17,0,0.24l1.77,2.93C132.21,28.46,132.44,28.46,132.53,28.3z"/>
		<path d="M99.69,28.3l-7.96-13.57c-0.09-0.16,0.02-0.36,0.21-0.36l10.04-0.04c0.08,0,0.16,0.04,0.2,0.11l6.25,10.07
			c0.09,0.15,0.31,0.15,0.41,0l1.75-2.79c0.05-0.08,0.05-0.17,0-0.25l-3.9-6.78c-0.09-0.16,0.03-0.36,0.21-0.36l6.02,0.11
			c0.08,0,0.16,0.05,0.2,0.12l2.89,4.93c0.04,0.07,0.04,0.15,0.01,0.23l-0.84,1.73c-0.03,0.06-0.03,0.14,0,0.2l0.86,1.96
			c0.03,0.07,0.03,0.15-0.01,0.22l-1.6,2.73c-0.18,0.31-0.62,0.31-0.81,0.01l-0.31-0.5c-0.19-0.3-0.63-0.3-0.81,0.01l-3.64,6.22
			c-0.09,0.16-0.32,0.16-0.41,0l-7.86-13.61c-0.04-0.08-0.13-0.12-0.21-0.12l-1.68,0.04c-0.18,0-0.29,0.2-0.2,0.36l3.4,6.16
			c0.04,0.07,0.04,0.17,0,0.24l-1.77,2.93C100.01,28.46,99.78,28.46,99.69,28.3z"/>
	</g>
	<path d="M38.55,1.11c-3.9,0-7.06,3.16-7.06,7.06v0c0,3.9,3.16,7.06,7.06,7.06s7.06-3.16,7.06-7.06v0
		C45.61,4.27,42.45,1.11,38.55,1.11z M38.55,11.01c-1.57,0-2.84-1.27-2.84-2.84c0-1.57,1.27-2.84,2.84-2.84s2.84,1.27,2.84,2.84
		C41.39,9.74,40.12,11.01,38.55,11.01z"/>
	<path d="M25.15,16.58L9.76,38.69c-0.26,0.38,0.01,0.9,0.47,0.9h14.25c0.32,0,0.57,0.26,0.57,0.57v2.98c0,0.32-0.26,0.57-0.57,0.57
		H2.88c-0.32,0-0.57-0.26-0.57-0.57v-1.48c0-0.12,0.04-0.23,0.1-0.33l15.44-21.98c0.27-0.38,0-0.9-0.47-0.9H4.13
		c-0.32,0-0.57-0.26-0.57-0.57v-3c0-0.32,0.26-0.57,0.57-0.57h20.55c0.32,0,0.57,0.26,0.57,0.57v1.38
		C25.25,16.37,25.22,16.48,25.15,16.58z"/>
	<path d="M56.71,33.61v9.52c0,0.32-0.26,0.57-0.57,0.57h-3.72c-0.32,0-0.57-0.26-0.57-0.57V14.87c0-0.32,0.26-0.57,0.57-0.57h8.35
		c3.38,0,6,0.79,7.85,2.36s2.79,3.79,2.79,6.64s-0.97,5.2-2.91,7.01s-4.57,2.73-7.88,2.73h-3.35C56.96,33.04,56.71,33.3,56.71,33.61
		z M56.71,18.89v9.6c0,0.32,0.26,0.57,0.57,0.57h2.59c2.09,0,3.68-0.49,4.78-1.46c1.09-0.97,1.64-2.34,1.64-4.1
		c0-3.46-2.01-5.19-6.03-5.19h-2.98C56.96,18.32,56.71,18.57,56.71,18.89z"/>
	<g>
		<path d="M44.72,22.01l0-1.04c0-0.14-0.11-0.25-0.25-0.25h-6.22v-0.59H36.8c-0.14,0-0.25,0.11-0.25,0.25l0,2.37
			c0,0.14,0.11,0.25,0.25,0.25h1.44l0-0.74h6.22C44.6,22.26,44.72,22.15,44.72,22.01z"/>
		<path d="M44.72,28.03l0-1.04c0-0.14-0.11-0.25-0.25-0.25h-6.22v-0.59H36.8c-0.14,0-0.25,0.11-0.25,0.25l0,2.37
			c0,0.14,0.11,0.25,0.25,0.25h1.44l0-0.74h6.22C44.6,28.28,44.72,28.16,44.72,28.03z"/>
		<path d="M44.72,33.96l0-1.04c0-0.14-0.11-0.25-0.25-0.25h-6.22v-0.59H36.8c-0.14,0-0.25,0.11-0.25,0.25l0,2.37
			c0,0.14,0.11,0.25,0.25,0.25h1.44l0-0.74h6.22C44.6,34.21,44.72,34.1,44.72,33.96z"/>
		<path d="M44.72,40.07l0-1.04c0-0.14-0.11-0.25-0.25-0.25h-6.22v-0.59H36.8c-0.14,0-0.25,0.11-0.25,0.25l0,2.37
			c0,0.14,0.11,0.25,0.25,0.25h1.44l0-0.74h6.22C44.6,40.32,44.72,40.21,44.72,40.07z"/>
		<path d="M42.73,23.18c0-0.23-0.19-0.42-0.42-0.42h-2.25v0.72h-6.15c-0.23,0-0.42,0.19-0.42,0.42v1.47c0,0.23,0.19,0.42,0.42,0.42
			l6.14,0v0.52l2.25,0c0.23,0,0.42-0.19,0.42-0.42V23.18z"/>
		<path d="M42.73,29.21c0-0.23-0.19-0.42-0.42-0.42h-2.25v0.72h-6.15c-0.23,0-0.42,0.19-0.42,0.42v1.47c0,0.23,0.19,0.42,0.42,0.42
			l6.14,0v0.52l2.25,0c0.23,0,0.42-0.19,0.42-0.42V29.21z"/>
		<path d="M42.73,35.2c0-0.23-0.19-0.42-0.42-0.42h-2.25v0.72h-6.15c-0.23,0-0.42,0.19-0.42,0.42v1.47c0,0.23,0.19,0.42,0.42,0.42
			l6.14,0v0.52l2.25,0c0.23,0,0.42-0.19,0.42-0.42V35.2z"/>
		<path d="M42.66,42.18c0-0.23-0.19-0.42-0.42-0.42H40v0.72h-6.15c-0.23,0-0.42,0.19-0.42,0.42v0.86c3.3,0,5.98,0,9.23,0V42.18z"/>
		<path d="M38.55,18.07c-1.1,0-2.14-0.26-3.07-0.71h-1.56c-0.23,0-0.42,0.19-0.42,0.42v1.47c0,0.23,0.19,0.42,0.42,0.42l6.14,0v0.52
			l2.25,0c0.23,0,0.42-0.19,0.42-0.42v-2.71c0-0.11-0.04-0.21-0.11-0.28C41.46,17.59,40.06,18.07,38.55,18.07z"/>
	</g>
</g>
<g id="Guids">
	<path d="M41.72,24.53"/>
</g>
</svg>
